<?xml version="1.0" encoding="UTF-8"?>
<!-- Generator: Adobe Illustrator 19.1.0, SVG Export Plug-In . SVG Version: 6.00 Build 0)  -->
<svg version="1.1" id="Layer_1" xmlns="http://www.w3.org/2000/svg" xmlns:xlink="http://www.w3.org/1999/xlink" x="0px" y="0px" viewBox="-431 240.5 95.9 80.5" style="enable-background:new -431 240.5 95.9 80.5;" xml:space="preserve">
<style type="text/css">
	.st0{display:none;}
	.st1{display:inline;fill:#DCA427;}
	.st2{display:inline;fill:#FFFFFF;}
	.st3{display:inline;fill:#FFFFFF;stroke:#DDA402;stroke-width:6;stroke-miterlimit:10;}
	.st4{display:inline;fill:#DDA402;}
	.st5{fill:#DCA427;}
	.st6{display:inline;}
</style>
<g id="Layer_1_1_" class="st0">
	<path class="st1" d="M-411,247.7l31,13.2v-8.2h11.5c10.2,0,16.6,6.9,16.6,16.8c0,5.4-1.8,10-5.3,13v4.3c19.6-10.2,15.5-44-12.5-44   H-380v-8.3L-411,247.7L-411,247.7z"/>
	<polygon class="st1" points="-420.5,266.5 -412.1,266.5 -412.1,275.7 -406.7,275.7 -406.7,266.3 -361.4,266.3 -361.4,314.7    -420.5,314.7  "/>
	<polygon class="st2" points="-395.4,272.1 -367.8,272.1 -367.8,308.9 -395.4,308.9  "/>
	<polygon class="st1" points="-378.7,292.5 -381,292.5 -377,285.9 -373.1,292.5 -375.2,292.5 -375.2,299.5 -378.5,299.5    -378.5,292.5  "/>
	<polygon class="st1" points="-389.9,302 -373.2,302 -373.2,305.3 -389.9,305.3  "/>
	<polygon class="st1" points="-384.4,292.5 -384.4,299.5 -387.7,299.5 -387.7,292.5 -389.9,292.5 -385.9,285.9 -382,292.5  "/>
</g>
<g id="Layer_2" class="st0">
	<path class="st3" d="M-384,308.6c0,0,1.7-1.9,4.9-1.9c12.5,0,18.1-2.1,22.4-9.5c6.7-11.4-1.5-18.3-1.5-25.4   c0-5.2,4.1-10.7,4.1-10.7l-12.4-12.6c-7.1,5.6-11.6,4.1-17.6,0c-5.8,4.1-10.5,5.6-17.6,0l-12.3,12.6c0,0,4.1,5.6,4.1,10.7   c0,7.1-8,14-1.5,25.4c4.3,7.3,9.9,9.5,22.4,9.5C-385.7,306.7-384,308.6-384,308.6z"/>
	<path class="st4" d="M-382.9,296.6l-5.8-12.9L-402,279l30.5-14L-382.9,296.6z"/>
</g>
<g id="Layer_3">
	<path class="st5" d="M-360.7,255.3h13c10.7,0,12.5,17.9,12.5,27.7v16.7c0,4.2-2,5.6-5.6,5.6h-5.6l-1.6-6.8   c-0.9-3.8-4.2-5.8-9.6-5.8h-8.5v-32.1C-366.1,257.3-364.1,255.3-360.7,255.3L-360.7,255.3z M-431,292.7h60.2v-45.5H-431   C-431,271.1-431,262.8-431,292.7L-431,292.7z M-340.9,278.9c-0.2-6.5-1.3-17.2-7.2-17.2h-6.3c-0.9,0-1.3,0.5-1.3,1.4v12.7   c0,1.1,0.4,1.6,1.4,2l10.1,3.3C-342.6,281.6-341.1,281.2-340.9,278.9L-340.9,278.9z M-423.8,297.2h2.4c0.9,0,1.6,0.7,1.6,1.6v5.3   c0,0.9-0.7,1.6-1.6,1.6h-2.4c-0.9,0-1.6-0.7-1.6-1.6v-5.3C-425.4,297.9-424.7,297.2-423.8,297.2L-423.8,297.2z M-407.3,297.2   c4.9,0,8.9,4,8.9,8.9s-4,8.9-8.9,8.9c-4.9,0-8.9-4-8.9-8.9C-416.1,301.2-412.2,297.2-407.3,297.2L-407.3,297.2z M-407.3,302.1   c-2.2,0-4,1.8-4,4c0,2.2,1.8,4,4,4c2.2,0,4-1.8,4-4C-403.3,303.9-405.1,302.1-407.3,302.1L-407.3,302.1z M-390.9,297.2h14.1   c1.6,0,3.1,1.4,3.1,3.1v4.2c0,1.6-1.4,3.1-3.1,3.1h-14.1c-1.6,0-3.1-1.3-3.1-3.1v-4.2C-394,298.5-392.6,297.2-390.9,297.2   L-390.9,297.2z M-359.8,297.2c4.9,0,8.9,4,8.9,8.9s-4,8.9-8.9,8.9c-4.9,0-8.9-4-8.9-8.9C-368.8,301.2-364.7,297.2-359.8,297.2   L-359.8,297.2z M-359.8,302.1c-2.2,0-4,1.8-4,4c0,2.2,1.8,4,4,4c2.2,0,4-1.8,4-4C-355.8,303.9-357.6,302.1-359.8,302.1   L-359.8,302.1z M-424.7,253.5h47.3v32.6h-47.3V253.5L-424.7,253.5z"/>
</g>
<g id="Layer_4" class="st0">
	<g class="st6">
		<g>
			<path class="st5" d="M-424.5,247.7c-3.7,0-6.5,2.7-6.5,6.4c0,3.5,2.8,6.4,6.5,6.4c3,0,5.5-1.5,6.2-4.8h10.4v-3.3h-10.6     C-419.5,248.9-421.8,247.7-424.5,247.7z"/>
			<rect x="-357.1" y="252.2" class="st5" width="20.1" height="3.3"/>
			<rect x="-399.6" y="252.2" class="st5" width="33.4" height="3.3"/>
		</g>
		<rect x="-404.6" y="247.9" class="st5" width="3.3" height="25.1"/>
		<rect x="-364.5" y="247.9" class="st5" width="3.3" height="25.1"/>
		<path class="st5" d="M-357.6,267.9v10h-8.9v-10h-32.2v10h-8.9v-10h-10.5v47h71.1v-47H-357.6z M-389.9,298.3h-0.5    c-0.3,0-0.7,0-1,0.2c-0.3,0.2-0.5,0.2-0.7,0.5c-0.2,0.3-0.3,0.5-0.3,0.8c0,0.3-0.2,0.8-0.2,1.3v5.9c-1.3,0.7-2.8,1.2-4.2,1.5    c-1.5,0.3-3,0.5-4.5,0.5c-2.2,0-4.2-0.3-5.9-1c-1.7-0.7-3-1.5-4.2-2.7c-1.2-1.2-1.8-2.5-2.5-4.2c-0.5-1.7-0.8-3.3-0.8-5.4    c0-2,0.3-3.7,0.8-5.4c0.5-1.7,1.3-3,2.5-4.2c1.2-1.2,2.5-2,4.2-2.7c1.7-0.7,3.7-1,5.9-1c1.5,0,2.8,0.2,3.8,0.3    c1.2,0.2,2,0.5,2.8,0.8c0.8,0.3,1.3,0.8,1.7,1.3c0.3,0.5,0.5,1,0.5,1.7c0,0.5-0.2,0.8-0.3,1.2c-0.2,0.3-0.5,0.7-0.8,1    c-0.3,0.3-0.8,0.5-1.5,0.7c-0.5,0.2-1.2,0.2-2,0.2c0-0.7-0.2-1.3-0.3-2c-0.2-0.7-0.5-1.2-0.8-1.5c-0.3-0.5-0.8-0.8-1.3-1    c-0.5-0.2-1.2-0.3-2-0.3c-1.3,0-2.3,0.2-3.3,0.7c-0.8,0.5-1.7,1.2-2.2,2.2s-1,2-1.3,3.3c-0.3,1.3-0.3,2.8-0.3,4.7    c0,1.7,0.2,3.3,0.3,4.7c0.3,1.3,0.7,2.5,1.3,3.3c0.7,0.8,1.3,1.7,2.3,2c1,0.5,2.2,0.7,3.5,0.7c0.5,0,0.8,0,1.3,0s0.8-0.2,1.3-0.2    v-5.4c0-1-0.2-1.7-0.7-2c-0.5-0.3-1-0.5-1.8-0.5h-0.5v-1.8h11.4v1.7L-389.9,298.3L-389.9,298.3z M-350.6,284.8h-0.7    c-0.3,0-0.7,0-1,0.2c-0.3,0-0.5,0.2-0.7,0.3c-0.2,0.2-0.3,0.5-0.5,0.8c-0.2,0.3-0.3,0.8-0.5,1.5l-5.4,20.9h-4l-6-16.9l-5.3,16.9    h-4.5l-6.7-21.9c-0.2-0.3-0.2-0.7-0.3-1c-0.2-0.2-0.3-0.5-0.5-0.7c-0.2-0.2-0.5-0.2-0.7-0.3c-0.3,0-0.5-0.2-0.8-0.2h-0.5v-1.7h12    v1.8h-0.8c-0.7,0-1.3,0.2-1.7,0.5c-0.3,0.3-0.5,0.7-0.5,1.3c0,0.2,0,0.5,0.2,0.8c0,0.3,0.2,0.7,0.3,1l2.3,8.4    c0.2,0.5,0.3,1,0.3,1.5c0.2,0.5,0.3,1,0.3,1.7c0.2,0.5,0.2,1,0.3,1.5c0.2,0.5,0.2,1,0.2,1.3c0.2-0.8,0.3-1.5,0.5-2.2    c0.2-0.7,0.3-1.3,0.7-2l4.7-15.4h2.7l5,13.7c0.2,0.5,0.3,1.2,0.7,1.7c0.2,0.5,0.3,1.2,0.5,1.7s0.3,1,0.3,1.5    c0.2,0.5,0.2,0.8,0.3,1.2c0.2-0.5,0.2-0.8,0.3-1.5c0.2-0.5,0.2-1,0.3-1.7c0.2-0.5,0.3-1.2,0.3-1.8c0.2-0.7,0.3-1.2,0.3-1.8    l1.8-7.7c0-0.2,0-0.3,0.2-0.5c0-0.2,0-0.3,0.2-0.5c0-0.2,0-0.3,0-0.5c0-0.2,0-0.3,0-0.3c0-0.7-0.2-1-0.5-1.3    c-0.3-0.3-1-0.3-1.7-0.3h-0.8v-2h9.4L-350.6,284.8C-350.6,284.8-350.6,284.8-350.6,284.8z"/>
	</g>
</g>
<g id="Layer_5">
</g>
</svg>